<?xml version="1.0" encoding="UTF-8"?>
<!DOCTYPE svg PUBLIC "-//W3C//DTD SVG 1.1//EN" "http://www.w3.org/Graphics/SVG/1.1/DTD/svg11.dtd">
<!-- Creator: CorelDRAW 2019 (64-Bit) -->
<svg xmlns="http://www.w3.org/2000/svg" xml:space="preserve" width="20px" height="20px" version="1.1" style="shape-rendering:geometricPrecision; text-rendering:geometricPrecision; image-rendering:optimizeQuality; fill-rule:evenodd; clip-rule:evenodd"
viewBox="0 0 9.53 9.53"
 xmlns:xlink="http://www.w3.org/1999/xlink">
 <defs>
  <style type="text/css">
   <![CDATA[
    .fil0 {fill:black}
   ]]>
  </style>
 </defs>
 <g id="Слой_x0020_1">
  <metadata id="CorelCorpID_0Corel-Layer"/>
  <path class="fil0" d="M0 5.9l0 -2.27c0,-0.2 0.16,-0.36 0.36,-0.36l2.91 0 0 -2.91c0,-0.2 0.16,-0.36 0.36,-0.36l2.27 0c0.2,0 0.36,0.16 0.36,0.36l0 2.91 2.91 0c0.2,0 0.36,0.16 0.36,0.36l0 2.27c0,0.2 -0.16,0.36 -0.36,0.36l-2.91 0 0 2.91c0,0.2 -0.16,0.36 -0.36,0.36l-2.27 0c-0.2,0 -0.36,-0.16 -0.36,-0.36l0 -2.91 -2.91 0c-0.2,0 -0.36,-0.16 -0.36,-0.36z"/>
 </g>
</svg>
